<mxfile host="app.diagrams.net" modified="2021-12-10T10:01:43.107Z" agent="5.0 (Macintosh; Intel Mac OS X 10_15_7) AppleWebKit/605.1.15 (KHTML, like Gecko) Version/13.1.3 Safari/605.1.15" etag="I0boZySGGJdBgcmIPJTw" version="15.9.4" type="github">
  <diagram id="2LI3dkZsDLi3Qtf23H4-" name="Page-1">
    <mxGraphModel dx="946" dy="588" grid="1" gridSize="10" guides="1" tooltips="1" connect="1" arrows="1" fold="1" page="1" pageScale="1" pageWidth="827" pageHeight="1169" math="0" shadow="0">
      <root>
        <mxCell id="0" />
        <mxCell id="1" parent="0" />
        <mxCell id="iFuCHvqGLGAlYTTW33Xn-4" value="&lt;font style=&quot;font-size: 16px&quot;&gt;Original &lt;br&gt;image I&lt;/font&gt;" style="shape=parallelogram;perimeter=parallelogramPerimeter;whiteSpace=wrap;html=1;fixedSize=1;sketch=0;fontFamily=Times New Roman;fontSize=20;fontColor=#000000;strokeColor=#000000;strokeWidth=1;fillColor=#FFFFFF;" vertex="1" parent="1">
          <mxGeometry x="30" y="153" width="100" height="50" as="geometry" />
        </mxCell>
        <mxCell id="iFuCHvqGLGAlYTTW33Xn-5" value="&lt;font size=&quot;3&quot;&gt;&quot;Cross&quot; set image &lt;i&gt;I&lt;sub&gt;C&lt;/sub&gt;&lt;/i&gt;&lt;/font&gt;" style="shape=parallelogram;perimeter=parallelogramPerimeter;whiteSpace=wrap;html=1;fixedSize=1;sketch=0;fontFamily=Times New Roman;fontSize=20;fontColor=#000000;strokeColor=#000000;strokeWidth=1;fillColor=#FFFFFF;" vertex="1" parent="1">
          <mxGeometry x="160" y="80" width="110" height="50" as="geometry" />
        </mxCell>
        <mxCell id="iFuCHvqGLGAlYTTW33Xn-6" value="&lt;font size=&quot;3&quot;&gt;&quot;Cross&quot; set image &lt;i&gt;I&lt;sub&gt;C&lt;/sub&gt;&lt;/i&gt;&lt;/font&gt;" style="shape=parallelogram;perimeter=parallelogramPerimeter;whiteSpace=wrap;html=1;fixedSize=1;sketch=0;fontFamily=Times New Roman;fontSize=20;fontColor=#000000;strokeColor=#000000;strokeWidth=1;fillColor=#FFFFFF;" vertex="1" parent="1">
          <mxGeometry x="161" y="220" width="110" height="50" as="geometry" />
        </mxCell>
        <mxCell id="iFuCHvqGLGAlYTTW33Xn-9" value="CNN" style="rounded=0;whiteSpace=wrap;html=1;sketch=0;fontFamily=Times New Roman;fontSize=16;fontColor=#000000;strokeColor=#000000;strokeWidth=1;fillColor=#FFFFFF;" vertex="1" parent="1">
          <mxGeometry x="329" y="146" width="60" height="40" as="geometry" />
        </mxCell>
        <mxCell id="iFuCHvqGLGAlYTTW33Xn-10" value="Reversible embedding" style="rounded=0;whiteSpace=wrap;html=1;sketch=0;fontFamily=Times New Roman;fontSize=16;fontColor=#000000;strokeColor=#000000;strokeWidth=1;fillColor=#FFFFFF;" vertex="1" parent="1">
          <mxGeometry x="304" y="220" width="110" height="50" as="geometry" />
        </mxCell>
        <mxCell id="iFuCHvqGLGAlYTTW33Xn-11" value="&lt;h1&gt;&lt;br&gt;&lt;/h1&gt;" style="text;html=1;strokeColor=#3333FF;fillColor=none;spacing=5;spacingTop=-20;whiteSpace=wrap;overflow=hidden;rounded=0;sketch=0;fontFamily=Times New Roman;fontSize=16;fontColor=#000000;dashed=1;strokeWidth=2;" vertex="1" parent="1">
          <mxGeometry x="190" y="360" width="290" height="240" as="geometry" />
        </mxCell>
        <mxCell id="iFuCHvqGLGAlYTTW33Xn-12" value="Prediction of the &quot;Dot&quot; set image&amp;nbsp;" style="text;html=1;strokeColor=none;fillColor=none;align=center;verticalAlign=middle;whiteSpace=wrap;rounded=0;dashed=1;sketch=0;fontFamily=Times New Roman;fontSize=16;fontColor=#000000;" vertex="1" parent="1">
          <mxGeometry x="159" y="50" width="240" height="30" as="geometry" />
        </mxCell>
        <mxCell id="iFuCHvqGLGAlYTTW33Xn-13" value="" style="endArrow=classic;html=1;rounded=0;fontFamily=Times New Roman;fontSize=16;fontColor=#000000;strokeColor=#FF0000;strokeWidth=2;exitX=1;exitY=0.5;exitDx=0;exitDy=0;" edge="1" parent="1" source="iFuCHvqGLGAlYTTW33Xn-4">
          <mxGeometry width="50" height="50" relative="1" as="geometry">
            <mxPoint x="120" y="186" as="sourcePoint" />
            <mxPoint x="170" y="130" as="targetPoint" />
          </mxGeometry>
        </mxCell>
        <mxCell id="iFuCHvqGLGAlYTTW33Xn-15" value="" style="endArrow=classic;html=1;rounded=0;fontFamily=Times New Roman;fontSize=16;fontColor=#000000;strokeColor=#FF0000;strokeWidth=2;" edge="1" parent="1" target="iFuCHvqGLGAlYTTW33Xn-6">
          <mxGeometry width="50" height="50" relative="1" as="geometry">
            <mxPoint x="120" y="180" as="sourcePoint" />
            <mxPoint x="430" y="280" as="targetPoint" />
          </mxGeometry>
        </mxCell>
        <mxCell id="iFuCHvqGLGAlYTTW33Xn-17" value="" style="endArrow=classic;html=1;rounded=0;fontFamily=Times New Roman;fontSize=16;fontColor=#000000;strokeColor=#FF0000;strokeWidth=2;exitX=1;exitY=0.5;exitDx=0;exitDy=0;entryX=0;entryY=0.5;entryDx=0;entryDy=0;" edge="1" parent="1" source="iFuCHvqGLGAlYTTW33Xn-6" target="iFuCHvqGLGAlYTTW33Xn-10">
          <mxGeometry width="50" height="50" relative="1" as="geometry">
            <mxPoint x="380" y="330" as="sourcePoint" />
            <mxPoint x="430" y="280" as="targetPoint" />
          </mxGeometry>
        </mxCell>
        <mxCell id="iFuCHvqGLGAlYTTW33Xn-18" value="&lt;font size=&quot;3&quot;&gt;&quot;Cross&quot; set image &lt;i&gt;I&lt;sub&gt;C&lt;/sub&gt;&lt;/i&gt;&lt;/font&gt;" style="shape=parallelogram;perimeter=parallelogramPerimeter;whiteSpace=wrap;html=1;fixedSize=1;sketch=0;fontFamily=Times New Roman;fontSize=20;fontColor=#000000;strokeColor=#000000;strokeWidth=1;fillColor=#FFFFFF;" vertex="1" parent="1">
          <mxGeometry x="480" y="80" width="110" height="50" as="geometry" />
        </mxCell>
        <mxCell id="iFuCHvqGLGAlYTTW33Xn-19" value="" style="endArrow=classic;html=1;rounded=0;fontFamily=Times New Roman;fontSize=16;fontColor=#000000;strokeColor=#FF0000;strokeWidth=2;exitX=1;exitY=0.5;exitDx=0;exitDy=0;entryX=0;entryY=0.5;entryDx=0;entryDy=0;" edge="1" parent="1" source="iFuCHvqGLGAlYTTW33Xn-5" target="iFuCHvqGLGAlYTTW33Xn-18">
          <mxGeometry width="50" height="50" relative="1" as="geometry">
            <mxPoint x="380" y="330" as="sourcePoint" />
            <mxPoint x="460" y="100" as="targetPoint" />
          </mxGeometry>
        </mxCell>
        <mxCell id="iFuCHvqGLGAlYTTW33Xn-20" value="" style="endArrow=classic;html=1;rounded=0;fontFamily=Times New Roman;fontSize=16;fontColor=#000000;strokeColor=#FF0000;strokeWidth=2;" edge="1" parent="1">
          <mxGeometry width="50" height="50" relative="1" as="geometry">
            <mxPoint x="359" y="105" as="sourcePoint" />
            <mxPoint x="359" y="145" as="targetPoint" />
          </mxGeometry>
        </mxCell>
        <mxCell id="iFuCHvqGLGAlYTTW33Xn-21" value="" style="endArrow=classic;html=1;rounded=0;fontFamily=Times New Roman;fontSize=16;fontColor=#000000;strokeColor=#FF0000;strokeWidth=2;exitX=0.5;exitY=1;exitDx=0;exitDy=0;" edge="1" parent="1" source="iFuCHvqGLGAlYTTW33Xn-9">
          <mxGeometry width="50" height="50" relative="1" as="geometry">
            <mxPoint x="359" y="190" as="sourcePoint" />
            <mxPoint x="358.75" y="220" as="targetPoint" />
          </mxGeometry>
        </mxCell>
        <mxCell id="iFuCHvqGLGAlYTTW33Xn-22" value="" style="endArrow=classic;html=1;rounded=0;fontFamily=Times New Roman;fontSize=16;fontColor=#000000;strokeColor=#FF0000;strokeWidth=2;exitX=1;exitY=0.5;exitDx=0;exitDy=0;" edge="1" parent="1" target="iFuCHvqGLGAlYTTW33Xn-23">
          <mxGeometry width="50" height="50" relative="1" as="geometry">
            <mxPoint x="414" y="244.75" as="sourcePoint" />
            <mxPoint x="457" y="244.75" as="targetPoint" />
          </mxGeometry>
        </mxCell>
        <mxCell id="iFuCHvqGLGAlYTTW33Xn-23" value="&lt;font style=&quot;font-size: 12px ; line-height: 1&quot;&gt;&quot;Dot&quot; set data&lt;br&gt;&amp;nbsp;hidden image &lt;i&gt;I&lt;sub&gt;DW&lt;/sub&gt;&lt;/i&gt;&lt;/font&gt;" style="shape=parallelogram;perimeter=parallelogramPerimeter;whiteSpace=wrap;html=1;fixedSize=1;sketch=0;fontFamily=Times New Roman;fontSize=20;fontColor=#000000;strokeColor=#000000;strokeWidth=1;fillColor=#FFFFFF;" vertex="1" parent="1">
          <mxGeometry x="470" y="220" width="130" height="50" as="geometry" />
        </mxCell>
      </root>
    </mxGraphModel>
  </diagram>
</mxfile>
